<mxfile host="app.diagrams.net" modified="2021-02-25T04:33:54.180Z" agent="5.0 (Windows NT 10.0; Win64; x64) AppleWebKit/537.36 (KHTML, like Gecko) Chrome/88.0.4324.182 Safari/537.36" etag="tGXr38ixkf4Dze_VZ5Bx" version="14.4.3" type="github" pages="2">
  <diagram id="6a731a19-8d31-9384-78a2-239565b7b9f0" name="Page-1">
    <mxGraphModel dx="1144" dy="592" grid="1" gridSize="10" guides="1" tooltips="1" connect="1" arrows="1" fold="1" page="1" pageScale="1" pageWidth="1169" pageHeight="827" background="#ffffff" math="0" shadow="0">
      <root>
        <mxCell id="0" />
        <mxCell id="1" parent="0" />
        <mxCell id="seM33nbZD62kK_sZ7QuY-979" value="1. 디자인 변경" style="rounded=0;whiteSpace=wrap;html=1;fontSize=20;" parent="1" vertex="1">
          <mxGeometry x="160" y="120" width="750" height="60" as="geometry" />
        </mxCell>
        <mxCell id="seM33nbZD62kK_sZ7QuY-981" value="&lt;div&gt;&lt;div&gt;&lt;b&gt;&lt;font style=&quot;font-size: 20px&quot;&gt;&lt;br&gt;&lt;/font&gt;&lt;/b&gt;&lt;/div&gt;&lt;div&gt;&lt;div&gt;&lt;b&gt;&lt;font style=&quot;font-size: 20px&quot;&gt;설정파일 경로&lt;/font&gt;&lt;/b&gt;&lt;/div&gt;&lt;div&gt;&lt;br&gt;&lt;/div&gt;&lt;div&gt;./ui/public/config.json (빌드 후 : /dist/config.json)&lt;br&gt;&lt;/div&gt;&lt;/div&gt;&lt;div&gt;(&lt;span&gt;$config =&amp;nbsp;&lt;/span&gt;&lt;span&gt;./ui/public/config.json)&lt;/span&gt;&lt;br&gt;&lt;/div&gt;&lt;div&gt;&lt;b&gt;&lt;font style=&quot;font-size: 20px&quot;&gt;&lt;br&gt;&lt;/font&gt;&lt;/b&gt;&lt;/div&gt;&lt;div&gt;&lt;b&gt;&lt;font style=&quot;font-size: 20px&quot;&gt;&lt;br&gt;&lt;/font&gt;&lt;/b&gt;&lt;/div&gt;&lt;div&gt;&lt;b&gt;&lt;font style=&quot;font-size: 20px&quot;&gt;이미지 경로&lt;/font&gt;&lt;/b&gt;&lt;/div&gt;&lt;div style=&quot;font-size: 18px&quot;&gt;&lt;span&gt;&lt;br&gt;&lt;/span&gt;&lt;/div&gt;&lt;div style=&quot;font-size: 18px&quot;&gt;&lt;span&gt;로고 및 배너&lt;/span&gt;&lt;br&gt;&lt;/div&gt;&lt;div style=&quot;font-size: 18px&quot;&gt;logo : ./ui/public/assets/logo.svg&lt;/div&gt;&lt;div style=&quot;font-size: 18px&quot;&gt;banner : ./ui/public/assets/banner.svg&lt;/div&gt;&lt;div style=&quot;font-size: 18px&quot;&gt;&amp;nbsp;&amp;nbsp;&lt;/div&gt;&lt;div style=&quot;font-size: 18px&quot;&gt;에러 페이지:&lt;/div&gt;&lt;div style=&quot;font-size: 18px&quot;&gt;404 : ./ui/public/assets/404.png&lt;/div&gt;&lt;div style=&quot;font-size: 18px&quot;&gt;403 : ./ui/public/assets/403.png&lt;/div&gt;&lt;div style=&quot;font-size: 18px&quot;&gt;500 : ./ui/public/assets/500.png&lt;/div&gt;&lt;/div&gt;&lt;div style=&quot;font-size: 18px&quot;&gt;&lt;br&gt;&lt;/div&gt;&lt;div style=&quot;font-size: 18px&quot;&gt;&lt;br&gt;&lt;/div&gt;&lt;div style=&quot;font-size: 18px&quot;&gt;&lt;br&gt;&lt;/div&gt;&lt;div&gt;&lt;div style=&quot;font-size: 18px&quot;&gt;&lt;span style=&quot;font-size: 20px&quot;&gt;&lt;b&gt;이미지 크기&lt;/b&gt;&lt;/span&gt;&lt;/div&gt;&lt;div style=&quot;font-size: 18px&quot;&gt;&lt;span style=&quot;font-size: 20px&quot;&gt;&lt;b&gt;&lt;br&gt;&lt;/b&gt;&lt;/span&gt;&lt;/div&gt;&lt;div style=&quot;font-size: 18px&quot;&gt;&lt;span&gt;로고 및 배너&lt;/span&gt;&lt;br&gt;&lt;/div&gt;&lt;div style=&quot;font-size: 18px&quot;&gt;logo : width: 256px, height: 64px&lt;/div&gt;&lt;div style=&quot;font-size: 18px&quot;&gt;banner : width=&quot;1484.4133, &quot;height=&quot;362.9483&quot;&lt;/div&gt;&lt;div style=&quot;font-size: 18px&quot;&gt;&lt;br&gt;&lt;/div&gt;&lt;div style=&quot;font-size: 18px&quot;&gt;&lt;br&gt;&lt;/div&gt;&lt;div style=&quot;font-size: 18px&quot;&gt;&lt;br&gt;&lt;/div&gt;&lt;div style=&quot;font-size: 18px&quot;&gt;&lt;b style=&quot;font-size: 20px&quot;&gt;텍스트 수정&lt;/b&gt;&lt;br&gt;&lt;/div&gt;&lt;div&gt;&lt;/div&gt;&lt;/div&gt;&lt;br&gt;&lt;b&gt;Footer&lt;/b&gt;&lt;br&gt;&lt;span&gt;vue파일 : ui/src/components/page/GlobalFooter.vue&lt;/span&gt;&lt;br&gt;&lt;span&gt;template 영역&lt;/span&gt;&lt;br&gt;&lt;span&gt;&amp;nbsp; (a) 라이선스 :&amp;nbsp;&lt;/span&gt;&lt;span&gt;template &amp;gt; div &amp;gt;&amp;nbsp;div:nth-child(1) &amp;gt;&amp;nbsp;&lt;/span&gt;&lt;span&gt;span 의 $config.footer 수정&lt;/span&gt;&lt;br&gt;&lt;span&gt;&amp;nbsp; (b) 제품명 : template &amp;gt; div &amp;gt;&amp;nbsp;div:nth-child(2) 수정&lt;/span&gt;&lt;br&gt;&lt;br&gt;&lt;div&gt;&lt;div style=&quot;font-size: 18px&quot;&gt;&lt;br&gt;&lt;/div&gt;&lt;/div&gt;" style="rounded=0;whiteSpace=wrap;html=1;fontSize=18;align=left;" parent="1" vertex="1">
          <mxGeometry x="160" y="220" width="750" height="770" as="geometry" />
        </mxCell>
        <mxCell id="imZLDdzaTuMN5iO5UrlP-1" value="2. 문자 변경" style="rounded=0;whiteSpace=wrap;html=1;fontSize=20;" parent="1" vertex="1">
          <mxGeometry x="160" y="1360" width="750" height="60" as="geometry" />
        </mxCell>
        <mxCell id="imZLDdzaTuMN5iO5UrlP-2" value="&lt;div&gt;&lt;div&gt;&lt;b&gt;&lt;font style=&quot;font-size: 20px&quot;&gt;&lt;br&gt;&lt;/font&gt;&lt;/b&gt;&lt;/div&gt;&lt;div&gt;&lt;div&gt;&lt;b&gt;&lt;font style=&quot;font-size: 20px&quot;&gt;설정파일 경로&lt;/font&gt;&lt;/b&gt;&lt;/div&gt;&lt;div&gt;&lt;br&gt;&lt;/div&gt;&lt;div&gt;&lt;span&gt;./ui/&lt;/span&gt;public/locales/*.json (en.json, ko_KR.json)&lt;/div&gt;&lt;/div&gt;&lt;div&gt;&lt;br&gt;&lt;/div&gt;&lt;div&gt;* VS CODE에서 유니코드 형식으로 한글 표기되는 문제&lt;/div&gt;&lt;div&gt;&amp;nbsp;Expension &quot;Udecoder&quot; 설치한 후 실행하여 변환&lt;/div&gt;&lt;div&gt;&lt;br&gt;&lt;/div&gt;&lt;/div&gt;" style="rounded=0;whiteSpace=wrap;html=1;fontSize=18;align=left;" parent="1" vertex="1">
          <mxGeometry x="160" y="1460" width="750" height="170" as="geometry" />
        </mxCell>
      </root>
    </mxGraphModel>
  </diagram>
  <diagram id="wY-adVekaZgLD2moxx1o" name="페이지-2">
    <mxGraphModel dx="1346" dy="696" grid="1" gridSize="10" guides="1" tooltips="1" connect="1" arrows="1" fold="1" page="1" pageScale="1" pageWidth="1169" pageHeight="827" math="0" shadow="0">
      <root>
        <mxCell id="MJLNDcAAcJh9wXEjOTjr-0" />
        <mxCell id="MJLNDcAAcJh9wXEjOTjr-1" parent="MJLNDcAAcJh9wXEjOTjr-0" />
        <mxCell id="MJLNDcAAcJh9wXEjOTjr-18" value="" style="shape=table;html=1;whiteSpace=wrap;startSize=0;container=1;collapsible=0;childLayout=tableLayout;fontSize=18;fontStyle=1" vertex="1" parent="MJLNDcAAcJh9wXEjOTjr-1">
          <mxGeometry x="50" y="30" width="490" height="650" as="geometry" />
        </mxCell>
        <mxCell id="MJLNDcAAcJh9wXEjOTjr-19" value="" style="shape=partialRectangle;html=1;whiteSpace=wrap;collapsible=0;dropTarget=0;pointerEvents=0;fillColor=none;top=0;left=0;bottom=0;right=0;points=[[0,0.5],[1,0.5]];portConstraint=eastwest;fontSize=18;fontStyle=1" vertex="1" parent="MJLNDcAAcJh9wXEjOTjr-18">
          <mxGeometry width="490" height="50" as="geometry" />
        </mxCell>
        <mxCell id="MJLNDcAAcJh9wXEjOTjr-20" value="cloud&lt;br&gt;stack" style="shape=partialRectangle;html=1;whiteSpace=wrap;connectable=0;overflow=hidden;fillColor=none;top=0;left=0;bottom=0;right=0;fontSize=18;fontStyle=1" vertex="1" parent="MJLNDcAAcJh9wXEjOTjr-19">
          <mxGeometry width="70" height="50" as="geometry" />
        </mxCell>
        <mxCell id="MJLNDcAAcJh9wXEjOTjr-21" value="" style="shape=partialRectangle;html=1;whiteSpace=wrap;connectable=0;overflow=hidden;fillColor=none;top=0;left=0;bottom=0;right=0;fontSize=18;fontStyle=1" vertex="1" parent="MJLNDcAAcJh9wXEjOTjr-19">
          <mxGeometry x="70" width="70" height="50" as="geometry" />
        </mxCell>
        <mxCell id="MJLNDcAAcJh9wXEjOTjr-22" value="" style="shape=partialRectangle;html=1;whiteSpace=wrap;connectable=0;overflow=hidden;fillColor=none;top=0;left=0;bottom=0;right=0;fontSize=18;fontStyle=1" vertex="1" parent="MJLNDcAAcJh9wXEjOTjr-19">
          <mxGeometry x="140" width="70" height="50" as="geometry" />
        </mxCell>
        <mxCell id="MJLNDcAAcJh9wXEjOTjr-23" value="" style="shape=partialRectangle;html=1;whiteSpace=wrap;connectable=0;overflow=hidden;fillColor=none;top=0;left=0;bottom=0;right=0;fontSize=18;fontStyle=1" vertex="1" parent="MJLNDcAAcJh9wXEjOTjr-19">
          <mxGeometry x="210" width="70" height="50" as="geometry" />
        </mxCell>
        <mxCell id="MJLNDcAAcJh9wXEjOTjr-24" value="" style="shape=partialRectangle;html=1;whiteSpace=wrap;connectable=0;overflow=hidden;fillColor=none;top=0;left=0;bottom=0;right=0;fontSize=18;fontStyle=1" vertex="1" parent="MJLNDcAAcJh9wXEjOTjr-19">
          <mxGeometry x="280" width="70" height="50" as="geometry" />
        </mxCell>
        <mxCell id="MJLNDcAAcJh9wXEjOTjr-25" value="" style="shape=partialRectangle;html=1;whiteSpace=wrap;connectable=0;overflow=hidden;fillColor=none;top=0;left=0;bottom=0;right=0;fontSize=18;fontStyle=1" vertex="1" parent="MJLNDcAAcJh9wXEjOTjr-19">
          <mxGeometry x="350" width="70" height="50" as="geometry" />
        </mxCell>
        <mxCell id="MJLNDcAAcJh9wXEjOTjr-26" value="" style="shape=partialRectangle;html=1;whiteSpace=wrap;connectable=0;overflow=hidden;fillColor=none;top=0;left=0;bottom=0;right=0;fontSize=18;fontStyle=1" vertex="1" parent="MJLNDcAAcJh9wXEjOTjr-19">
          <mxGeometry x="420" width="70" height="50" as="geometry" />
        </mxCell>
        <mxCell id="MJLNDcAAcJh9wXEjOTjr-115" value="" style="shape=partialRectangle;html=1;whiteSpace=wrap;collapsible=0;dropTarget=0;pointerEvents=0;fillColor=none;top=0;left=0;bottom=0;right=0;points=[[0,0.5],[1,0.5]];portConstraint=eastwest;fontSize=18;fontStyle=1" vertex="1" parent="MJLNDcAAcJh9wXEjOTjr-18">
          <mxGeometry y="50" width="490" height="50" as="geometry" />
        </mxCell>
        <mxCell id="MJLNDcAAcJh9wXEjOTjr-116" value="" style="shape=partialRectangle;html=1;whiteSpace=wrap;connectable=0;overflow=hidden;fillColor=none;top=0;left=0;bottom=0;right=0;fontSize=18;fontStyle=1" vertex="1" parent="MJLNDcAAcJh9wXEjOTjr-115">
          <mxGeometry width="70" height="50" as="geometry" />
        </mxCell>
        <mxCell id="MJLNDcAAcJh9wXEjOTjr-117" value="ui" style="shape=partialRectangle;html=1;whiteSpace=wrap;connectable=0;overflow=hidden;fillColor=none;top=0;left=0;bottom=0;right=0;fontSize=18;fontStyle=1" vertex="1" parent="MJLNDcAAcJh9wXEjOTjr-115">
          <mxGeometry x="70" width="70" height="50" as="geometry" />
        </mxCell>
        <mxCell id="MJLNDcAAcJh9wXEjOTjr-118" value="" style="shape=partialRectangle;html=1;whiteSpace=wrap;connectable=0;overflow=hidden;fillColor=none;top=0;left=0;bottom=0;right=0;fontSize=18;fontStyle=1" vertex="1" parent="MJLNDcAAcJh9wXEjOTjr-115">
          <mxGeometry x="140" width="70" height="50" as="geometry" />
        </mxCell>
        <mxCell id="MJLNDcAAcJh9wXEjOTjr-119" value="" style="shape=partialRectangle;html=1;whiteSpace=wrap;connectable=0;overflow=hidden;fillColor=none;top=0;left=0;bottom=0;right=0;fontSize=18;fontStyle=1" vertex="1" parent="MJLNDcAAcJh9wXEjOTjr-115">
          <mxGeometry x="210" width="70" height="50" as="geometry" />
        </mxCell>
        <mxCell id="MJLNDcAAcJh9wXEjOTjr-120" value="" style="shape=partialRectangle;html=1;whiteSpace=wrap;connectable=0;overflow=hidden;fillColor=none;top=0;left=0;bottom=0;right=0;fontSize=18;fontStyle=1" vertex="1" parent="MJLNDcAAcJh9wXEjOTjr-115">
          <mxGeometry x="280" width="70" height="50" as="geometry" />
        </mxCell>
        <mxCell id="MJLNDcAAcJh9wXEjOTjr-121" value="" style="shape=partialRectangle;html=1;whiteSpace=wrap;connectable=0;overflow=hidden;fillColor=none;top=0;left=0;bottom=0;right=0;fontSize=18;fontStyle=1" vertex="1" parent="MJLNDcAAcJh9wXEjOTjr-115">
          <mxGeometry x="350" width="70" height="50" as="geometry" />
        </mxCell>
        <mxCell id="MJLNDcAAcJh9wXEjOTjr-122" value="" style="shape=partialRectangle;html=1;whiteSpace=wrap;connectable=0;overflow=hidden;fillColor=none;top=0;left=0;bottom=0;right=0;fontSize=18;fontStyle=1" vertex="1" parent="MJLNDcAAcJh9wXEjOTjr-115">
          <mxGeometry x="420" width="70" height="50" as="geometry" />
        </mxCell>
        <mxCell id="MJLNDcAAcJh9wXEjOTjr-27" value="" style="shape=partialRectangle;html=1;whiteSpace=wrap;collapsible=0;dropTarget=0;pointerEvents=0;fillColor=none;top=0;left=0;bottom=0;right=0;points=[[0,0.5],[1,0.5]];portConstraint=eastwest;fontSize=18;fontStyle=1" vertex="1" parent="MJLNDcAAcJh9wXEjOTjr-18">
          <mxGeometry y="100" width="490" height="50" as="geometry" />
        </mxCell>
        <mxCell id="MJLNDcAAcJh9wXEjOTjr-28" value="" style="shape=partialRectangle;html=1;whiteSpace=wrap;connectable=0;overflow=hidden;fillColor=none;top=0;left=0;bottom=0;right=0;fontSize=18;fontStyle=1" vertex="1" parent="MJLNDcAAcJh9wXEjOTjr-27">
          <mxGeometry width="70" height="50" as="geometry" />
        </mxCell>
        <mxCell id="MJLNDcAAcJh9wXEjOTjr-29" value="" style="shape=partialRectangle;html=1;whiteSpace=wrap;connectable=0;overflow=hidden;fillColor=none;top=0;left=0;bottom=0;right=0;fontSize=18;fontStyle=1" vertex="1" parent="MJLNDcAAcJh9wXEjOTjr-27">
          <mxGeometry x="70" width="70" height="50" as="geometry" />
        </mxCell>
        <mxCell id="MJLNDcAAcJh9wXEjOTjr-30" value="" style="shape=partialRectangle;html=1;whiteSpace=wrap;connectable=0;overflow=hidden;fillColor=none;top=0;left=0;bottom=0;right=0;fontSize=18;fontStyle=1" vertex="1" parent="MJLNDcAAcJh9wXEjOTjr-27">
          <mxGeometry x="140" width="70" height="50" as="geometry" />
        </mxCell>
        <mxCell id="MJLNDcAAcJh9wXEjOTjr-31" value="" style="shape=partialRectangle;html=1;whiteSpace=wrap;connectable=0;overflow=hidden;fillColor=none;top=0;left=0;bottom=0;right=0;fontSize=18;fontStyle=1" vertex="1" parent="MJLNDcAAcJh9wXEjOTjr-27">
          <mxGeometry x="210" width="70" height="50" as="geometry" />
        </mxCell>
        <mxCell id="MJLNDcAAcJh9wXEjOTjr-32" value="" style="shape=partialRectangle;html=1;whiteSpace=wrap;connectable=0;overflow=hidden;fillColor=none;top=0;left=0;bottom=0;right=0;fontSize=18;fontStyle=1" vertex="1" parent="MJLNDcAAcJh9wXEjOTjr-27">
          <mxGeometry x="280" width="70" height="50" as="geometry" />
        </mxCell>
        <mxCell id="MJLNDcAAcJh9wXEjOTjr-33" value="" style="shape=partialRectangle;html=1;whiteSpace=wrap;connectable=0;overflow=hidden;fillColor=none;top=0;left=0;bottom=0;right=0;fontSize=18;fontStyle=1" vertex="1" parent="MJLNDcAAcJh9wXEjOTjr-27">
          <mxGeometry x="350" width="70" height="50" as="geometry" />
        </mxCell>
        <mxCell id="MJLNDcAAcJh9wXEjOTjr-34" value="" style="shape=partialRectangle;html=1;whiteSpace=wrap;connectable=0;overflow=hidden;fillColor=none;top=0;left=0;bottom=0;right=0;fontSize=18;fontStyle=1" vertex="1" parent="MJLNDcAAcJh9wXEjOTjr-27">
          <mxGeometry x="420" width="70" height="50" as="geometry" />
        </mxCell>
        <mxCell id="MJLNDcAAcJh9wXEjOTjr-35" value="" style="shape=partialRectangle;html=1;whiteSpace=wrap;collapsible=0;dropTarget=0;pointerEvents=0;fillColor=none;top=0;left=0;bottom=0;right=0;points=[[0,0.5],[1,0.5]];portConstraint=eastwest;fontSize=18;fontStyle=1" vertex="1" parent="MJLNDcAAcJh9wXEjOTjr-18">
          <mxGeometry y="150" width="490" height="50" as="geometry" />
        </mxCell>
        <mxCell id="MJLNDcAAcJh9wXEjOTjr-36" value="" style="shape=partialRectangle;html=1;whiteSpace=wrap;connectable=0;overflow=hidden;fillColor=none;top=0;left=0;bottom=0;right=0;fontSize=18;fontStyle=1" vertex="1" parent="MJLNDcAAcJh9wXEjOTjr-35">
          <mxGeometry width="70" height="50" as="geometry" />
        </mxCell>
        <mxCell id="MJLNDcAAcJh9wXEjOTjr-37" value="" style="shape=partialRectangle;html=1;whiteSpace=wrap;connectable=0;overflow=hidden;fillColor=none;top=0;left=0;bottom=0;right=0;fontSize=18;fontStyle=1" vertex="1" parent="MJLNDcAAcJh9wXEjOTjr-35">
          <mxGeometry x="70" width="70" height="50" as="geometry" />
        </mxCell>
        <mxCell id="MJLNDcAAcJh9wXEjOTjr-38" value="" style="shape=partialRectangle;html=1;whiteSpace=wrap;connectable=0;overflow=hidden;fillColor=none;top=0;left=0;bottom=0;right=0;fontSize=18;fontStyle=1" vertex="1" parent="MJLNDcAAcJh9wXEjOTjr-35">
          <mxGeometry x="140" width="70" height="50" as="geometry" />
        </mxCell>
        <mxCell id="MJLNDcAAcJh9wXEjOTjr-39" value="" style="shape=partialRectangle;html=1;whiteSpace=wrap;connectable=0;overflow=hidden;fillColor=none;top=0;left=0;bottom=0;right=0;fontSize=18;fontStyle=1" vertex="1" parent="MJLNDcAAcJh9wXEjOTjr-35">
          <mxGeometry x="210" width="70" height="50" as="geometry" />
        </mxCell>
        <mxCell id="MJLNDcAAcJh9wXEjOTjr-40" value="" style="shape=partialRectangle;html=1;whiteSpace=wrap;connectable=0;overflow=hidden;fillColor=none;top=0;left=0;bottom=0;right=0;fontSize=18;fontStyle=1" vertex="1" parent="MJLNDcAAcJh9wXEjOTjr-35">
          <mxGeometry x="280" width="70" height="50" as="geometry" />
        </mxCell>
        <mxCell id="MJLNDcAAcJh9wXEjOTjr-41" value="" style="shape=partialRectangle;html=1;whiteSpace=wrap;connectable=0;overflow=hidden;fillColor=none;top=0;left=0;bottom=0;right=0;fontSize=18;fontStyle=1" vertex="1" parent="MJLNDcAAcJh9wXEjOTjr-35">
          <mxGeometry x="350" width="70" height="50" as="geometry" />
        </mxCell>
        <mxCell id="MJLNDcAAcJh9wXEjOTjr-42" value="" style="shape=partialRectangle;html=1;whiteSpace=wrap;connectable=0;overflow=hidden;fillColor=none;top=0;left=0;bottom=0;right=0;fontSize=18;fontStyle=1" vertex="1" parent="MJLNDcAAcJh9wXEjOTjr-35">
          <mxGeometry x="420" width="70" height="50" as="geometry" />
        </mxCell>
        <mxCell id="MJLNDcAAcJh9wXEjOTjr-43" value="" style="shape=partialRectangle;html=1;whiteSpace=wrap;collapsible=0;dropTarget=0;pointerEvents=0;fillColor=none;top=0;left=0;bottom=0;right=0;points=[[0,0.5],[1,0.5]];portConstraint=eastwest;fontSize=18;fontStyle=1" vertex="1" parent="MJLNDcAAcJh9wXEjOTjr-18">
          <mxGeometry y="200" width="490" height="50" as="geometry" />
        </mxCell>
        <mxCell id="MJLNDcAAcJh9wXEjOTjr-44" value="" style="shape=partialRectangle;html=1;whiteSpace=wrap;connectable=0;overflow=hidden;fillColor=none;top=0;left=0;bottom=0;right=0;fontSize=18;fontStyle=1" vertex="1" parent="MJLNDcAAcJh9wXEjOTjr-43">
          <mxGeometry width="70" height="50" as="geometry" />
        </mxCell>
        <mxCell id="MJLNDcAAcJh9wXEjOTjr-45" value="" style="shape=partialRectangle;html=1;whiteSpace=wrap;connectable=0;overflow=hidden;fillColor=none;top=0;left=0;bottom=0;right=0;fontSize=18;fontStyle=1" vertex="1" parent="MJLNDcAAcJh9wXEjOTjr-43">
          <mxGeometry x="70" width="70" height="50" as="geometry" />
        </mxCell>
        <mxCell id="MJLNDcAAcJh9wXEjOTjr-46" value="" style="shape=partialRectangle;html=1;whiteSpace=wrap;connectable=0;overflow=hidden;fillColor=none;top=0;left=0;bottom=0;right=0;fontSize=18;fontStyle=1" vertex="1" parent="MJLNDcAAcJh9wXEjOTjr-43">
          <mxGeometry x="140" width="70" height="50" as="geometry" />
        </mxCell>
        <mxCell id="MJLNDcAAcJh9wXEjOTjr-47" value="" style="shape=partialRectangle;html=1;whiteSpace=wrap;connectable=0;overflow=hidden;fillColor=none;top=0;left=0;bottom=0;right=0;fontSize=18;fontStyle=1" vertex="1" parent="MJLNDcAAcJh9wXEjOTjr-43">
          <mxGeometry x="210" width="70" height="50" as="geometry" />
        </mxCell>
        <mxCell id="MJLNDcAAcJh9wXEjOTjr-48" value="" style="shape=partialRectangle;html=1;whiteSpace=wrap;connectable=0;overflow=hidden;fillColor=none;top=0;left=0;bottom=0;right=0;fontSize=18;fontStyle=1" vertex="1" parent="MJLNDcAAcJh9wXEjOTjr-43">
          <mxGeometry x="280" width="70" height="50" as="geometry" />
        </mxCell>
        <mxCell id="MJLNDcAAcJh9wXEjOTjr-49" value="" style="shape=partialRectangle;html=1;whiteSpace=wrap;connectable=0;overflow=hidden;fillColor=none;top=0;left=0;bottom=0;right=0;fontSize=18;fontStyle=1" vertex="1" parent="MJLNDcAAcJh9wXEjOTjr-43">
          <mxGeometry x="350" width="70" height="50" as="geometry" />
        </mxCell>
        <mxCell id="MJLNDcAAcJh9wXEjOTjr-50" value="" style="shape=partialRectangle;html=1;whiteSpace=wrap;connectable=0;overflow=hidden;fillColor=none;top=0;left=0;bottom=0;right=0;fontSize=18;fontStyle=1" vertex="1" parent="MJLNDcAAcJh9wXEjOTjr-43">
          <mxGeometry x="420" width="70" height="50" as="geometry" />
        </mxCell>
        <mxCell id="MJLNDcAAcJh9wXEjOTjr-51" value="" style="shape=partialRectangle;html=1;whiteSpace=wrap;collapsible=0;dropTarget=0;pointerEvents=0;fillColor=none;top=0;left=0;bottom=0;right=0;points=[[0,0.5],[1,0.5]];portConstraint=eastwest;fontSize=18;fontStyle=1" vertex="1" parent="MJLNDcAAcJh9wXEjOTjr-18">
          <mxGeometry y="250" width="490" height="49" as="geometry" />
        </mxCell>
        <mxCell id="MJLNDcAAcJh9wXEjOTjr-52" value="" style="shape=partialRectangle;html=1;whiteSpace=wrap;connectable=0;overflow=hidden;fillColor=none;top=0;left=0;bottom=0;right=0;fontSize=18;fontStyle=1" vertex="1" parent="MJLNDcAAcJh9wXEjOTjr-51">
          <mxGeometry width="70" height="49" as="geometry" />
        </mxCell>
        <mxCell id="MJLNDcAAcJh9wXEjOTjr-53" value="" style="shape=partialRectangle;html=1;whiteSpace=wrap;connectable=0;overflow=hidden;fillColor=none;top=0;left=0;bottom=0;right=0;fontSize=18;fontStyle=1" vertex="1" parent="MJLNDcAAcJh9wXEjOTjr-51">
          <mxGeometry x="70" width="70" height="49" as="geometry" />
        </mxCell>
        <mxCell id="MJLNDcAAcJh9wXEjOTjr-54" value="" style="shape=partialRectangle;html=1;whiteSpace=wrap;connectable=0;overflow=hidden;fillColor=none;top=0;left=0;bottom=0;right=0;fontSize=18;fontStyle=1" vertex="1" parent="MJLNDcAAcJh9wXEjOTjr-51">
          <mxGeometry x="140" width="70" height="49" as="geometry" />
        </mxCell>
        <mxCell id="MJLNDcAAcJh9wXEjOTjr-55" value="" style="shape=partialRectangle;html=1;whiteSpace=wrap;connectable=0;overflow=hidden;fillColor=none;top=0;left=0;bottom=0;right=0;fontSize=18;fontStyle=1" vertex="1" parent="MJLNDcAAcJh9wXEjOTjr-51">
          <mxGeometry x="210" width="70" height="49" as="geometry" />
        </mxCell>
        <mxCell id="MJLNDcAAcJh9wXEjOTjr-56" value="" style="shape=partialRectangle;html=1;whiteSpace=wrap;connectable=0;overflow=hidden;fillColor=none;top=0;left=0;bottom=0;right=0;fontSize=18;fontStyle=1" vertex="1" parent="MJLNDcAAcJh9wXEjOTjr-51">
          <mxGeometry x="280" width="70" height="49" as="geometry" />
        </mxCell>
        <mxCell id="MJLNDcAAcJh9wXEjOTjr-57" value="" style="shape=partialRectangle;html=1;whiteSpace=wrap;connectable=0;overflow=hidden;fillColor=none;top=0;left=0;bottom=0;right=0;fontSize=18;fontStyle=1" vertex="1" parent="MJLNDcAAcJh9wXEjOTjr-51">
          <mxGeometry x="350" width="70" height="49" as="geometry" />
        </mxCell>
        <mxCell id="MJLNDcAAcJh9wXEjOTjr-58" value="" style="shape=partialRectangle;html=1;whiteSpace=wrap;connectable=0;overflow=hidden;fillColor=none;top=0;left=0;bottom=0;right=0;fontSize=18;fontStyle=1" vertex="1" parent="MJLNDcAAcJh9wXEjOTjr-51">
          <mxGeometry x="420" width="70" height="49" as="geometry" />
        </mxCell>
        <mxCell id="MJLNDcAAcJh9wXEjOTjr-59" value="" style="shape=partialRectangle;html=1;whiteSpace=wrap;collapsible=0;dropTarget=0;pointerEvents=0;fillColor=none;top=0;left=0;bottom=0;right=0;points=[[0,0.5],[1,0.5]];portConstraint=eastwest;fontSize=18;fontStyle=1" vertex="1" parent="MJLNDcAAcJh9wXEjOTjr-18">
          <mxGeometry y="299" width="490" height="52" as="geometry" />
        </mxCell>
        <mxCell id="MJLNDcAAcJh9wXEjOTjr-60" value="" style="shape=partialRectangle;html=1;whiteSpace=wrap;connectable=0;overflow=hidden;fillColor=none;top=0;left=0;bottom=0;right=0;fontSize=18;fontStyle=1" vertex="1" parent="MJLNDcAAcJh9wXEjOTjr-59">
          <mxGeometry width="70" height="52" as="geometry" />
        </mxCell>
        <mxCell id="MJLNDcAAcJh9wXEjOTjr-61" value="" style="shape=partialRectangle;html=1;whiteSpace=wrap;connectable=0;overflow=hidden;fillColor=none;top=0;left=0;bottom=0;right=0;fontSize=18;fontStyle=1" vertex="1" parent="MJLNDcAAcJh9wXEjOTjr-59">
          <mxGeometry x="70" width="70" height="52" as="geometry" />
        </mxCell>
        <mxCell id="MJLNDcAAcJh9wXEjOTjr-62" value="" style="shape=partialRectangle;html=1;whiteSpace=wrap;connectable=0;overflow=hidden;fillColor=none;top=0;left=0;bottom=0;right=0;fontSize=18;fontStyle=1" vertex="1" parent="MJLNDcAAcJh9wXEjOTjr-59">
          <mxGeometry x="140" width="70" height="52" as="geometry" />
        </mxCell>
        <mxCell id="MJLNDcAAcJh9wXEjOTjr-63" value="" style="shape=partialRectangle;html=1;whiteSpace=wrap;connectable=0;overflow=hidden;fillColor=none;top=0;left=0;bottom=0;right=0;fontSize=18;fontStyle=1" vertex="1" parent="MJLNDcAAcJh9wXEjOTjr-59">
          <mxGeometry x="210" width="70" height="52" as="geometry" />
        </mxCell>
        <mxCell id="MJLNDcAAcJh9wXEjOTjr-64" value="" style="shape=partialRectangle;html=1;whiteSpace=wrap;connectable=0;overflow=hidden;fillColor=none;top=0;left=0;bottom=0;right=0;fontSize=18;fontStyle=1" vertex="1" parent="MJLNDcAAcJh9wXEjOTjr-59">
          <mxGeometry x="280" width="70" height="52" as="geometry" />
        </mxCell>
        <mxCell id="MJLNDcAAcJh9wXEjOTjr-65" value="" style="shape=partialRectangle;html=1;whiteSpace=wrap;connectable=0;overflow=hidden;fillColor=none;top=0;left=0;bottom=0;right=0;fontSize=18;fontStyle=1" vertex="1" parent="MJLNDcAAcJh9wXEjOTjr-59">
          <mxGeometry x="350" width="70" height="52" as="geometry" />
        </mxCell>
        <mxCell id="MJLNDcAAcJh9wXEjOTjr-66" value="" style="shape=partialRectangle;html=1;whiteSpace=wrap;connectable=0;overflow=hidden;fillColor=none;top=0;left=0;bottom=0;right=0;fontSize=18;fontStyle=1" vertex="1" parent="MJLNDcAAcJh9wXEjOTjr-59">
          <mxGeometry x="420" width="70" height="52" as="geometry" />
        </mxCell>
        <mxCell id="MJLNDcAAcJh9wXEjOTjr-67" value="" style="shape=partialRectangle;html=1;whiteSpace=wrap;collapsible=0;dropTarget=0;pointerEvents=0;fillColor=none;top=0;left=0;bottom=0;right=0;points=[[0,0.5],[1,0.5]];portConstraint=eastwest;fontSize=18;fontStyle=1" vertex="1" parent="MJLNDcAAcJh9wXEjOTjr-18">
          <mxGeometry y="351" width="490" height="49" as="geometry" />
        </mxCell>
        <mxCell id="MJLNDcAAcJh9wXEjOTjr-68" value="" style="shape=partialRectangle;html=1;whiteSpace=wrap;connectable=0;overflow=hidden;fillColor=none;top=0;left=0;bottom=0;right=0;fontSize=18;fontStyle=1" vertex="1" parent="MJLNDcAAcJh9wXEjOTjr-67">
          <mxGeometry width="70" height="49" as="geometry" />
        </mxCell>
        <mxCell id="MJLNDcAAcJh9wXEjOTjr-69" value="" style="shape=partialRectangle;html=1;whiteSpace=wrap;connectable=0;overflow=hidden;fillColor=none;top=0;left=0;bottom=0;right=0;fontSize=18;fontStyle=1" vertex="1" parent="MJLNDcAAcJh9wXEjOTjr-67">
          <mxGeometry x="70" width="70" height="49" as="geometry" />
        </mxCell>
        <mxCell id="MJLNDcAAcJh9wXEjOTjr-70" value="" style="shape=partialRectangle;html=1;whiteSpace=wrap;connectable=0;overflow=hidden;fillColor=none;top=0;left=0;bottom=0;right=0;fontSize=18;fontStyle=1" vertex="1" parent="MJLNDcAAcJh9wXEjOTjr-67">
          <mxGeometry x="140" width="70" height="49" as="geometry" />
        </mxCell>
        <mxCell id="MJLNDcAAcJh9wXEjOTjr-71" value="" style="shape=partialRectangle;html=1;whiteSpace=wrap;connectable=0;overflow=hidden;fillColor=none;top=0;left=0;bottom=0;right=0;fontSize=18;fontStyle=1" vertex="1" parent="MJLNDcAAcJh9wXEjOTjr-67">
          <mxGeometry x="210" width="70" height="49" as="geometry" />
        </mxCell>
        <mxCell id="MJLNDcAAcJh9wXEjOTjr-72" value="" style="shape=partialRectangle;html=1;whiteSpace=wrap;connectable=0;overflow=hidden;fillColor=none;top=0;left=0;bottom=0;right=0;fontSize=18;fontStyle=1" vertex="1" parent="MJLNDcAAcJh9wXEjOTjr-67">
          <mxGeometry x="280" width="70" height="49" as="geometry" />
        </mxCell>
        <mxCell id="MJLNDcAAcJh9wXEjOTjr-73" value="" style="shape=partialRectangle;html=1;whiteSpace=wrap;connectable=0;overflow=hidden;fillColor=none;top=0;left=0;bottom=0;right=0;fontSize=18;fontStyle=1" vertex="1" parent="MJLNDcAAcJh9wXEjOTjr-67">
          <mxGeometry x="350" width="70" height="49" as="geometry" />
        </mxCell>
        <mxCell id="MJLNDcAAcJh9wXEjOTjr-74" value="" style="shape=partialRectangle;html=1;whiteSpace=wrap;connectable=0;overflow=hidden;fillColor=none;top=0;left=0;bottom=0;right=0;fontSize=18;fontStyle=1" vertex="1" parent="MJLNDcAAcJh9wXEjOTjr-67">
          <mxGeometry x="420" width="70" height="49" as="geometry" />
        </mxCell>
        <mxCell id="MJLNDcAAcJh9wXEjOTjr-75" value="" style="shape=partialRectangle;html=1;whiteSpace=wrap;collapsible=0;dropTarget=0;pointerEvents=0;fillColor=none;top=0;left=0;bottom=0;right=0;points=[[0,0.5],[1,0.5]];portConstraint=eastwest;fontSize=18;fontStyle=1" vertex="1" parent="MJLNDcAAcJh9wXEjOTjr-18">
          <mxGeometry y="400" width="490" height="50" as="geometry" />
        </mxCell>
        <mxCell id="MJLNDcAAcJh9wXEjOTjr-76" value="" style="shape=partialRectangle;html=1;whiteSpace=wrap;connectable=0;overflow=hidden;fillColor=none;top=0;left=0;bottom=0;right=0;fontSize=18;fontStyle=1" vertex="1" parent="MJLNDcAAcJh9wXEjOTjr-75">
          <mxGeometry width="70" height="50" as="geometry" />
        </mxCell>
        <mxCell id="MJLNDcAAcJh9wXEjOTjr-77" value="" style="shape=partialRectangle;html=1;whiteSpace=wrap;connectable=0;overflow=hidden;fillColor=none;top=0;left=0;bottom=0;right=0;fontSize=18;fontStyle=1" vertex="1" parent="MJLNDcAAcJh9wXEjOTjr-75">
          <mxGeometry x="70" width="70" height="50" as="geometry" />
        </mxCell>
        <mxCell id="MJLNDcAAcJh9wXEjOTjr-78" value="" style="shape=partialRectangle;html=1;whiteSpace=wrap;connectable=0;overflow=hidden;fillColor=none;top=0;left=0;bottom=0;right=0;fontSize=18;fontStyle=1" vertex="1" parent="MJLNDcAAcJh9wXEjOTjr-75">
          <mxGeometry x="140" width="70" height="50" as="geometry" />
        </mxCell>
        <mxCell id="MJLNDcAAcJh9wXEjOTjr-79" value="" style="shape=partialRectangle;html=1;whiteSpace=wrap;connectable=0;overflow=hidden;fillColor=none;top=0;left=0;bottom=0;right=0;fontSize=18;fontStyle=1" vertex="1" parent="MJLNDcAAcJh9wXEjOTjr-75">
          <mxGeometry x="210" width="70" height="50" as="geometry" />
        </mxCell>
        <mxCell id="MJLNDcAAcJh9wXEjOTjr-80" value="" style="shape=partialRectangle;html=1;whiteSpace=wrap;connectable=0;overflow=hidden;fillColor=none;top=0;left=0;bottom=0;right=0;fontSize=18;fontStyle=1" vertex="1" parent="MJLNDcAAcJh9wXEjOTjr-75">
          <mxGeometry x="280" width="70" height="50" as="geometry" />
        </mxCell>
        <mxCell id="MJLNDcAAcJh9wXEjOTjr-81" value="" style="shape=partialRectangle;html=1;whiteSpace=wrap;connectable=0;overflow=hidden;fillColor=none;top=0;left=0;bottom=0;right=0;fontSize=18;fontStyle=1" vertex="1" parent="MJLNDcAAcJh9wXEjOTjr-75">
          <mxGeometry x="350" width="70" height="50" as="geometry" />
        </mxCell>
        <mxCell id="MJLNDcAAcJh9wXEjOTjr-82" value="" style="shape=partialRectangle;html=1;whiteSpace=wrap;connectable=0;overflow=hidden;fillColor=none;top=0;left=0;bottom=0;right=0;fontSize=18;fontStyle=1" vertex="1" parent="MJLNDcAAcJh9wXEjOTjr-75">
          <mxGeometry x="420" width="70" height="50" as="geometry" />
        </mxCell>
        <mxCell id="MJLNDcAAcJh9wXEjOTjr-83" value="" style="shape=partialRectangle;html=1;whiteSpace=wrap;collapsible=0;dropTarget=0;pointerEvents=0;fillColor=none;top=0;left=0;bottom=0;right=0;points=[[0,0.5],[1,0.5]];portConstraint=eastwest;fontSize=18;fontStyle=1" vertex="1" parent="MJLNDcAAcJh9wXEjOTjr-18">
          <mxGeometry y="450" width="490" height="50" as="geometry" />
        </mxCell>
        <mxCell id="MJLNDcAAcJh9wXEjOTjr-84" value="" style="shape=partialRectangle;html=1;whiteSpace=wrap;connectable=0;overflow=hidden;fillColor=none;top=0;left=0;bottom=0;right=0;fontSize=18;fontStyle=1" vertex="1" parent="MJLNDcAAcJh9wXEjOTjr-83">
          <mxGeometry width="70" height="50" as="geometry" />
        </mxCell>
        <mxCell id="MJLNDcAAcJh9wXEjOTjr-85" value="" style="shape=partialRectangle;html=1;whiteSpace=wrap;connectable=0;overflow=hidden;fillColor=none;top=0;left=0;bottom=0;right=0;fontSize=18;fontStyle=1" vertex="1" parent="MJLNDcAAcJh9wXEjOTjr-83">
          <mxGeometry x="70" width="70" height="50" as="geometry" />
        </mxCell>
        <mxCell id="MJLNDcAAcJh9wXEjOTjr-86" value="" style="shape=partialRectangle;html=1;whiteSpace=wrap;connectable=0;overflow=hidden;fillColor=none;top=0;left=0;bottom=0;right=0;fontSize=18;fontStyle=1" vertex="1" parent="MJLNDcAAcJh9wXEjOTjr-83">
          <mxGeometry x="140" width="70" height="50" as="geometry" />
        </mxCell>
        <mxCell id="MJLNDcAAcJh9wXEjOTjr-87" value="" style="shape=partialRectangle;html=1;whiteSpace=wrap;connectable=0;overflow=hidden;fillColor=none;top=0;left=0;bottom=0;right=0;fontSize=18;fontStyle=1" vertex="1" parent="MJLNDcAAcJh9wXEjOTjr-83">
          <mxGeometry x="210" width="70" height="50" as="geometry" />
        </mxCell>
        <mxCell id="MJLNDcAAcJh9wXEjOTjr-88" value="" style="shape=partialRectangle;html=1;whiteSpace=wrap;connectable=0;overflow=hidden;fillColor=none;top=0;left=0;bottom=0;right=0;fontSize=18;fontStyle=1" vertex="1" parent="MJLNDcAAcJh9wXEjOTjr-83">
          <mxGeometry x="280" width="70" height="50" as="geometry" />
        </mxCell>
        <mxCell id="MJLNDcAAcJh9wXEjOTjr-89" value="" style="shape=partialRectangle;html=1;whiteSpace=wrap;connectable=0;overflow=hidden;fillColor=none;top=0;left=0;bottom=0;right=0;fontSize=18;fontStyle=1" vertex="1" parent="MJLNDcAAcJh9wXEjOTjr-83">
          <mxGeometry x="350" width="70" height="50" as="geometry" />
        </mxCell>
        <mxCell id="MJLNDcAAcJh9wXEjOTjr-90" value="" style="shape=partialRectangle;html=1;whiteSpace=wrap;connectable=0;overflow=hidden;fillColor=none;top=0;left=0;bottom=0;right=0;fontSize=18;fontStyle=1" vertex="1" parent="MJLNDcAAcJh9wXEjOTjr-83">
          <mxGeometry x="420" width="70" height="50" as="geometry" />
        </mxCell>
        <mxCell id="MJLNDcAAcJh9wXEjOTjr-91" value="" style="shape=partialRectangle;html=1;whiteSpace=wrap;collapsible=0;dropTarget=0;pointerEvents=0;fillColor=none;top=0;left=0;bottom=0;right=0;points=[[0,0.5],[1,0.5]];portConstraint=eastwest;fontSize=18;fontStyle=1" vertex="1" parent="MJLNDcAAcJh9wXEjOTjr-18">
          <mxGeometry y="500" width="490" height="50" as="geometry" />
        </mxCell>
        <mxCell id="MJLNDcAAcJh9wXEjOTjr-92" value="" style="shape=partialRectangle;html=1;whiteSpace=wrap;connectable=0;overflow=hidden;fillColor=none;top=0;left=0;bottom=0;right=0;fontSize=18;fontStyle=1" vertex="1" parent="MJLNDcAAcJh9wXEjOTjr-91">
          <mxGeometry width="70" height="50" as="geometry" />
        </mxCell>
        <mxCell id="MJLNDcAAcJh9wXEjOTjr-93" value="" style="shape=partialRectangle;html=1;whiteSpace=wrap;connectable=0;overflow=hidden;fillColor=none;top=0;left=0;bottom=0;right=0;fontSize=18;fontStyle=1" vertex="1" parent="MJLNDcAAcJh9wXEjOTjr-91">
          <mxGeometry x="70" width="70" height="50" as="geometry" />
        </mxCell>
        <mxCell id="MJLNDcAAcJh9wXEjOTjr-94" value="" style="shape=partialRectangle;html=1;whiteSpace=wrap;connectable=0;overflow=hidden;fillColor=none;top=0;left=0;bottom=0;right=0;fontSize=18;fontStyle=1" vertex="1" parent="MJLNDcAAcJh9wXEjOTjr-91">
          <mxGeometry x="140" width="70" height="50" as="geometry" />
        </mxCell>
        <mxCell id="MJLNDcAAcJh9wXEjOTjr-95" value="" style="shape=partialRectangle;html=1;whiteSpace=wrap;connectable=0;overflow=hidden;fillColor=none;top=0;left=0;bottom=0;right=0;fontSize=18;fontStyle=1" vertex="1" parent="MJLNDcAAcJh9wXEjOTjr-91">
          <mxGeometry x="210" width="70" height="50" as="geometry" />
        </mxCell>
        <mxCell id="MJLNDcAAcJh9wXEjOTjr-96" value="" style="shape=partialRectangle;html=1;whiteSpace=wrap;connectable=0;overflow=hidden;fillColor=none;top=0;left=0;bottom=0;right=0;fontSize=18;fontStyle=1" vertex="1" parent="MJLNDcAAcJh9wXEjOTjr-91">
          <mxGeometry x="280" width="70" height="50" as="geometry" />
        </mxCell>
        <mxCell id="MJLNDcAAcJh9wXEjOTjr-97" value="" style="shape=partialRectangle;html=1;whiteSpace=wrap;connectable=0;overflow=hidden;fillColor=none;top=0;left=0;bottom=0;right=0;fontSize=18;fontStyle=1" vertex="1" parent="MJLNDcAAcJh9wXEjOTjr-91">
          <mxGeometry x="350" width="70" height="50" as="geometry" />
        </mxCell>
        <mxCell id="MJLNDcAAcJh9wXEjOTjr-98" value="" style="shape=partialRectangle;html=1;whiteSpace=wrap;connectable=0;overflow=hidden;fillColor=none;top=0;left=0;bottom=0;right=0;fontSize=18;fontStyle=1" vertex="1" parent="MJLNDcAAcJh9wXEjOTjr-91">
          <mxGeometry x="420" width="70" height="50" as="geometry" />
        </mxCell>
        <mxCell id="MJLNDcAAcJh9wXEjOTjr-99" value="" style="shape=partialRectangle;html=1;whiteSpace=wrap;collapsible=0;dropTarget=0;pointerEvents=0;fillColor=none;top=0;left=0;bottom=0;right=0;points=[[0,0.5],[1,0.5]];portConstraint=eastwest;fontSize=18;fontStyle=1" vertex="1" parent="MJLNDcAAcJh9wXEjOTjr-18">
          <mxGeometry y="550" width="490" height="50" as="geometry" />
        </mxCell>
        <mxCell id="MJLNDcAAcJh9wXEjOTjr-100" value="" style="shape=partialRectangle;html=1;whiteSpace=wrap;connectable=0;overflow=hidden;fillColor=none;top=0;left=0;bottom=0;right=0;fontSize=18;fontStyle=1" vertex="1" parent="MJLNDcAAcJh9wXEjOTjr-99">
          <mxGeometry width="70" height="50" as="geometry" />
        </mxCell>
        <mxCell id="MJLNDcAAcJh9wXEjOTjr-101" value="" style="shape=partialRectangle;html=1;whiteSpace=wrap;connectable=0;overflow=hidden;fillColor=none;top=0;left=0;bottom=0;right=0;fontSize=18;fontStyle=1" vertex="1" parent="MJLNDcAAcJh9wXEjOTjr-99">
          <mxGeometry x="70" width="70" height="50" as="geometry" />
        </mxCell>
        <mxCell id="MJLNDcAAcJh9wXEjOTjr-102" value="" style="shape=partialRectangle;html=1;whiteSpace=wrap;connectable=0;overflow=hidden;fillColor=none;top=0;left=0;bottom=0;right=0;fontSize=18;fontStyle=1" vertex="1" parent="MJLNDcAAcJh9wXEjOTjr-99">
          <mxGeometry x="140" width="70" height="50" as="geometry" />
        </mxCell>
        <mxCell id="MJLNDcAAcJh9wXEjOTjr-103" value="" style="shape=partialRectangle;html=1;whiteSpace=wrap;connectable=0;overflow=hidden;fillColor=none;top=0;left=0;bottom=0;right=0;fontSize=18;fontStyle=1" vertex="1" parent="MJLNDcAAcJh9wXEjOTjr-99">
          <mxGeometry x="210" width="70" height="50" as="geometry" />
        </mxCell>
        <mxCell id="MJLNDcAAcJh9wXEjOTjr-104" value="" style="shape=partialRectangle;html=1;whiteSpace=wrap;connectable=0;overflow=hidden;fillColor=none;top=0;left=0;bottom=0;right=0;fontSize=18;fontStyle=1" vertex="1" parent="MJLNDcAAcJh9wXEjOTjr-99">
          <mxGeometry x="280" width="70" height="50" as="geometry" />
        </mxCell>
        <mxCell id="MJLNDcAAcJh9wXEjOTjr-105" value="" style="shape=partialRectangle;html=1;whiteSpace=wrap;connectable=0;overflow=hidden;fillColor=none;top=0;left=0;bottom=0;right=0;fontSize=18;fontStyle=1" vertex="1" parent="MJLNDcAAcJh9wXEjOTjr-99">
          <mxGeometry x="350" width="70" height="50" as="geometry" />
        </mxCell>
        <mxCell id="MJLNDcAAcJh9wXEjOTjr-106" value="" style="shape=partialRectangle;html=1;whiteSpace=wrap;connectable=0;overflow=hidden;fillColor=none;top=0;left=0;bottom=0;right=0;fontSize=18;fontStyle=1" vertex="1" parent="MJLNDcAAcJh9wXEjOTjr-99">
          <mxGeometry x="420" width="70" height="50" as="geometry" />
        </mxCell>
        <mxCell id="MJLNDcAAcJh9wXEjOTjr-107" value="" style="shape=partialRectangle;html=1;whiteSpace=wrap;collapsible=0;dropTarget=0;pointerEvents=0;fillColor=none;top=0;left=0;bottom=0;right=0;points=[[0,0.5],[1,0.5]];portConstraint=eastwest;fontSize=18;fontStyle=1" vertex="1" parent="MJLNDcAAcJh9wXEjOTjr-18">
          <mxGeometry y="600" width="490" height="50" as="geometry" />
        </mxCell>
        <mxCell id="MJLNDcAAcJh9wXEjOTjr-108" value="" style="shape=partialRectangle;html=1;whiteSpace=wrap;connectable=0;overflow=hidden;fillColor=none;top=0;left=0;bottom=0;right=0;fontSize=18;fontStyle=1" vertex="1" parent="MJLNDcAAcJh9wXEjOTjr-107">
          <mxGeometry width="70" height="50" as="geometry" />
        </mxCell>
        <mxCell id="MJLNDcAAcJh9wXEjOTjr-109" value="" style="shape=partialRectangle;html=1;whiteSpace=wrap;connectable=0;overflow=hidden;fillColor=none;top=0;left=0;bottom=0;right=0;fontSize=18;fontStyle=1" vertex="1" parent="MJLNDcAAcJh9wXEjOTjr-107">
          <mxGeometry x="70" width="70" height="50" as="geometry" />
        </mxCell>
        <mxCell id="MJLNDcAAcJh9wXEjOTjr-110" value="" style="shape=partialRectangle;html=1;whiteSpace=wrap;connectable=0;overflow=hidden;fillColor=none;top=0;left=0;bottom=0;right=0;fontSize=18;fontStyle=1" vertex="1" parent="MJLNDcAAcJh9wXEjOTjr-107">
          <mxGeometry x="140" width="70" height="50" as="geometry" />
        </mxCell>
        <mxCell id="MJLNDcAAcJh9wXEjOTjr-111" value="" style="shape=partialRectangle;html=1;whiteSpace=wrap;connectable=0;overflow=hidden;fillColor=none;top=0;left=0;bottom=0;right=0;fontSize=18;fontStyle=1" vertex="1" parent="MJLNDcAAcJh9wXEjOTjr-107">
          <mxGeometry x="210" width="70" height="50" as="geometry" />
        </mxCell>
        <mxCell id="MJLNDcAAcJh9wXEjOTjr-112" value="" style="shape=partialRectangle;html=1;whiteSpace=wrap;connectable=0;overflow=hidden;fillColor=none;top=0;left=0;bottom=0;right=0;fontSize=18;fontStyle=1" vertex="1" parent="MJLNDcAAcJh9wXEjOTjr-107">
          <mxGeometry x="280" width="70" height="50" as="geometry" />
        </mxCell>
        <mxCell id="MJLNDcAAcJh9wXEjOTjr-113" value="" style="shape=partialRectangle;html=1;whiteSpace=wrap;connectable=0;overflow=hidden;fillColor=none;top=0;left=0;bottom=0;right=0;fontSize=18;fontStyle=1" vertex="1" parent="MJLNDcAAcJh9wXEjOTjr-107">
          <mxGeometry x="350" width="70" height="50" as="geometry" />
        </mxCell>
        <mxCell id="MJLNDcAAcJh9wXEjOTjr-114" value="" style="shape=partialRectangle;html=1;whiteSpace=wrap;connectable=0;overflow=hidden;fillColor=none;top=0;left=0;bottom=0;right=0;fontSize=18;fontStyle=1" vertex="1" parent="MJLNDcAAcJh9wXEjOTjr-107">
          <mxGeometry x="420" width="70" height="50" as="geometry" />
        </mxCell>
      </root>
    </mxGraphModel>
  </diagram>
</mxfile>
